<?xml version="1.0" encoding="iso-8859-1"?>
<!-- Generator: Adobe Illustrator 19.0.0, SVG Export Plug-In . SVG Version: 6.00 Build 0)  -->
<!-- License: CC0. Made by SVG Repo: https://www.svgrepo.com/svg/299617/coffee-machine -->
<svg version="1.1" id="Layer_1" xmlns="http://www.w3.org/2000/svg" xmlns:xlink="http://www.w3.org/1999/xlink" x="0px"
    y="0px" viewBox="0 0 512 512" style="enable-background:new 0 0 512 512;" xml:space="preserve">
    <g>
        <g>
            <path
                d="M68.267,0v512h375.467V0H68.267z M102.4,204.8h136.533v56.889h-79.644v73.956c0,23.85,8.697,45.697,23.062,62.578H102.4
			V204.8z M318.578,295.822v39.822c0,34.505-28.072,62.578-62.578,62.578s-62.578-28.072-62.578-62.578v-39.822H318.578z
			 M409.6,477.867H102.4v-45.511h307.2V477.867z M409.6,398.222h-79.951c5.001-5.877,9.308-12.353,12.805-19.31
			c7.913,5.015,17.282,7.933,27.324,7.933c16.071,0,30.429-7.449,39.822-19.068V398.222z M352.711,335.644
			c0-9.411,7.656-17.067,17.067-17.067c9.411,0,17.067,7.656,17.067,17.067c0,9.411-7.656,17.067-17.067,17.067
			C360.367,352.711,352.711,345.055,352.711,335.644z M409.6,303.512c-9.394-11.619-23.751-19.068-39.822-19.068
			c-5.984,0-11.726,1.041-17.067,2.935v-25.691h-79.644V204.8H409.6V303.512z M409.6,170.667H102.4V34.133h307.2V170.667z" />
        </g>
    </g>
    <g>
        <g>
            <rect x="136.533" y="85.333" width="34.133" height="34.133" />
        </g>
    </g>
    <g>
        <g>
            <rect x="204.8" y="85.333" width="34.133" height="34.133" />
        </g>
    </g>
    <g>
        <g>
            <rect x="273.067" y="85.333" width="34.133" height="34.133" />
        </g>
    </g>
    <g>
        <g>
            <rect x="341.333" y="85.333" width="34.133" height="34.133" />
        </g>
    </g>
</svg>