<svg xmlns="http://www.w3.org/2000/svg" viewBox="0 0.627 40 38.747" style="enable-background:new 0 0 512 512" xml:space="preserve" width="30" height="40">
    <path style="fill:#f30f0f" d="M38.942 16.657v14.321a3.599 3.599 0 0 1-3.598 3.598h-3.387V23.64a6.977 6.977 0 0 1 3.175-5.853 6.953 6.953 0 0 1 3.81-1.13zm-3.81 17.919v3.739h-5.603v-3.739h2.429Z" />
    <path style="fill:#f30f0f" d="M35.132 6.103v11.685a6.976 6.976 0 0 0-3.175 5.853v.441H8.042v-.441a6.977 6.977 0 0 0-3.175-5.853V6.103a4.419 4.419 0 0 1 4.418-4.418h21.429a4.418 4.418 0 0 1 4.418 4.418z" />
    <path style="fill:#f30f0f" d="M31.958 24.081v10.495H8.042V24.081ZM10.471 34.576v3.739H4.868v-3.739h3.174Z" />
    <path style="fill:#f30f0f" d="M4.868 17.787a6.976 6.976 0 0 1 3.175 5.853v10.935H4.656a3.599 3.599 0 0 1-3.598-3.598v-14.32c1.406 0 2.714.416 3.81 1.13z" />
    <path d="M38.942 15.599c-.947 0-1.876.166-2.751.485V6.103A5.482 5.482 0 0 0 30.715.627H9.286A5.482 5.482 0 0 0 3.81 6.103v9.981a8.032 8.032 0 0 0-2.751-.485c-.585 0-1.059.474-1.059 1.058v14.321a4.664 4.664 0 0 0 3.81 4.578v2.76c0 .584.474 1.058 1.058 1.058h5.603c.584 0 1.058-.474 1.058-1.058v-2.681h16.942v2.681c0 .584.474 1.058 1.058 1.058h5.603c.584 0 1.058-.474 1.058-1.058v-2.76c2.165-.4 3.81-2.3 3.81-4.578V16.657c0-.584-.474-1.058-1.058-1.058zM4.656 33.517c-1.4 0-2.54-1.139-2.54-2.54V17.809c.772.139 1.51.431 2.174.864a5.909 5.909 0 0 1 2.694 4.966v9.877H4.656zm4.757 3.74H5.926v-1.623h3.487v1.623zm1.058-3.74h-1.37V25.14h1.733a1.058 1.058 0 0 0 0-2.116H9.077a8.01 8.01 0 0 0-3.15-5.783V6.103a3.363 3.363 0 0 1 3.36-3.36h21.429a3.363 3.363 0 0 1 3.36 3.36V17.24a8.011 8.011 0 0 0-3.15 5.783H17.619a1.058 1.058 0 0 0 0 2.116h13.28v8.378H10.471zm23.603 3.74h-3.487v-1.623h3.487v1.623zm3.81-6.279c0 1.4-1.139 2.54-2.54 2.54h-2.328V23.64a5.91 5.91 0 0 1 2.695-4.967 5.89 5.89 0 0 1 2.173-.864v13.169z" />
    <path d="M14.444 23.023h-.357a1.058 1.058 0 0 0 0 2.116h.357a1.058 1.058 0 0 0 0-2.116z" />
</svg>