<svg xmlns="http://www.w3.org/2000/svg" viewBox="0 0 35 35" style="enable-background:new 0 0 512 512"
  xml:space="preserve" width="30" height="30">
  <path style="fill:#b3b3b3"
    d="M34.074 14.575v12.531a3.149 3.149 0 0 1 -3.149 3.149h-2.963V20.685a6.105 6.105 0 0 1 2.778 -5.122 6.084 6.084 0 0 1 3.333 -0.988zm-3.333 15.679v3.271h-4.902v-3.271h2.126Z" />
  <path style="fill:#fff3e6"
    d="M30.741 5.34v10.225a6.104 6.104 0 0 0 -2.778 5.122v0.386H7.036v-0.386a6.105 6.105 0 0 0 -2.778 -5.122V5.34a3.866 3.866 0 0 1 3.866 -3.866h18.751a3.866 3.866 0 0 1 3.866 3.866z" />
  <path style="fill:#ccc2b8" d="M27.963 21.071v9.183H7.036v-9.183Z" />
  <path style="fill:#b3b3b3"
    d="M9.162 30.254v3.271H4.26v-3.271h2.778ZM4.26 15.563a6.104 6.104 0 0 1 2.778 5.122v9.568h-2.963a3.149 3.149 0 0 1 -3.149 -3.149v-12.53a6.09 6.09 0 0 1 3.333 0.988z" />
  <path
    d="M34.074 13.649a7.028 7.028 0 0 0 -2.407 0.425V5.34A4.797 4.797 0 0 0 26.875 0.548H8.125a4.797 4.797 0 0 0 -4.792 4.792v8.734a7.029 7.029 0 0 0 -2.407 -0.425 0.925 0.925 0 0 0 -0.926 0.926v12.531a4.081 4.081 0 0 0 3.333 4.006v2.415c0 0.511 0.414 0.926 0.926 0.926h4.902a0.926 0.926 0 0 0 0.926 -0.926v-2.346h14.825v2.346c0 0.511 0.414 0.926 0.926 0.926h4.902a0.926 0.926 0 0 0 0.926 -0.926v-2.415a4.08 4.08 0 0 0 3.333 -4.006V14.575a0.926 0.926 0 0 0 -0.926 -0.926zM4.074 29.328a2.225 2.225 0 0 1 -2.223 -2.223v-11.522a5.153 5.153 0 0 1 1.903 0.756 5.171 5.171 0 0 1 2.358 4.345v8.643H4.074zm4.163 3.273H5.185v-1.42h3.051v1.42zm0.926 -3.273H7.964v-7.33h1.517a0.926 0.926 0 0 0 0 -1.852H7.943a7.009 7.009 0 0 0 -2.756 -5.06V5.34a2.942 2.942 0 0 1 2.94 -2.94h18.751a2.942 2.942 0 0 1 2.94 2.94v9.745a7.009 7.009 0 0 0 -2.756 5.06h-11.646a0.926 0.926 0 0 0 0 1.852h11.62v7.331H9.162zm20.652 3.273h-3.051v-1.42h3.051v1.42zm3.333 -5.494c0 1.225 -0.996 2.223 -2.223 2.223h-2.037V20.685a5.172 5.172 0 0 1 2.358 -4.346 5.152 5.152 0 0 1 1.902 -0.756v11.522z" />
  <path d="M12.639 20.145h-0.313a0.926 0.926 0 0 0 0 1.852h0.313a0.926 0.926 0 0 0 0 -1.852z" />
</svg>