<svg version="1.1" id="Layer_1" xmlns="http://www.w3.org/2000/svg" xmlns:xlink="http://www.w3.org/1999/xlink" x="0px"
  y="0px" viewBox="0 0 40 40" style="enable-background: new 0 0 512 512" xml:space="preserve" width="30" height="30">
  <g>
    <path style=" fill:#0ADD80"
      d="M38.942 16.657v14.321c0 1.987 -1.612 3.598 -3.598 3.598h-0.212h-3.175V24.081v-0.441c0 -2.451 1.264 -4.607 3.175 -5.853C36.227 17.073 37.536 16.657 38.942 16.657z" />
    <path style="fill:#0ADD80"
      points="449.693,442.568 449.693,490.436 377.972,490.436 377.972,442.568 409.058,442.568 	"
      d="M35.132 34.576L35.132 38.315L29.529 38.315L29.529 34.576L31.958 34.576Z" />
  </g>
  <path style="fill:#0ADD80"
    d="M35.132 6.103v11.685c-1.911 1.245 -3.175 3.402 -3.175 5.853v0.441H8.042v-0.441c0 -2.451 -1.264 -4.607 -3.175 -5.853V6.103c0 -2.439 1.978 -4.418 4.418 -4.418h21.429C33.155 1.685 35.132 3.664 35.132 6.103z" />
  <path style="fill:#0ADD80" points="409.058,308.243 409.058,442.568 377.972,442.568 134.028,442.568 102.942,442.568 
	102.942,308.243 " d="M31.958 24.081L31.958 34.576L29.529 34.576L10.471 34.576L8.042 34.576L8.042 24.081Z" />
  <g>
    <path style="fill:#0ADD80" points="134.028,442.568 134.028,490.436 62.307,490.436 62.307,442.568 102.942,442.568 	"
      d="M10.471 34.576L10.471 38.315L4.868 38.315L4.868 34.576L8.042 34.576Z" />
    <path style="fill:#0ADD80"
      d="M4.868 17.787c1.911 1.245 3.175 3.402 3.175 5.853v0.441v10.494H4.868h-0.212c-1.986 0 -3.598 -1.611 -3.598 -3.598V16.657C2.464 16.657 3.772 17.073 4.868 17.787z" />
  </g>
  <path
    d="M38.942 15.599c-0.947 0 -1.876 0.166 -2.751 0.485V6.103c0 -3.02 -2.457 -5.476 -5.476 -5.476H9.286c-3.02 0 -5.476 2.457 -5.476 5.476v9.981c-0.876 -0.319 -1.805 -0.485 -2.751 -0.485C0.474 15.599 0 16.073 0 16.657v14.321c0 2.278 1.645 4.178 3.81 4.578v2.76c0 0.584 0.474 1.058 1.058 1.058h5.603c0.584 0 1.058 -0.474 1.058 -1.058v-2.681h16.942v2.681c0 0.584 0.474 1.058 1.058 1.058h5.603c0.584 0 1.058 -0.474 1.058 -1.058v-2.76C38.355 35.156 40 33.256 40 30.978V16.657C40 16.073 39.526 15.599 38.942 15.599zM4.656 33.517c-1.4 0 -2.54 -1.139 -2.54 -2.54v-13.168c0.772 0.139 1.51 0.431 2.174 0.864c1.687 1.099 2.694 2.956 2.694 4.966v9.877h-2.116H4.656zM9.413 37.257H5.926v-1.623h3.487V37.257zM10.471 33.517h-1.37V25.14h1.733c0.584 0 1.058 -0.474 1.058 -1.058c0 -0.584 -0.474 -1.058 -1.058 -1.058h-1.757c-0.175 -2.294 -1.316 -4.39 -3.15 -5.783V6.103c0 -1.853 1.507 -3.36 3.36 -3.36h21.429c1.853 0 3.36 1.507 3.36 3.36v11.137c-1.834 1.394 -2.976 3.49 -3.15 5.783H17.619c-0.584 0 -1.058 0.474 -1.058 1.058c0 0.584 0.474 1.058 1.058 1.058h13.28v8.378h-1.37H10.471zM34.074 37.257h-3.487v-1.623h3.487V37.257zM37.884 30.978c0 1.4 -1.139 2.54 -2.54 2.54h-0.212h-2.116V23.64c0 -2.01 1.007 -3.867 2.695 -4.967c0.663 -0.433 1.401 -0.724 2.173 -0.864V30.978z" />
  <path
    d="M14.444 23.023h-0.357c-0.584 0 -1.058 0.474 -1.058 1.058c0 0.584 0.474 1.058 1.058 1.058h0.357c0.584 0 1.058 -0.474 1.058 -1.058C15.503 23.497 15.029 23.023 14.444 23.023z" />
</svg>